<?xml version="1.0" standalone="no"?>
<!DOCTYPE svg PUBLIC "-//W3C//DTD SVG 20010904//EN"
 "http://www.w3.org/TR/2001/REC-SVG-20010904/DTD/svg10.dtd">
<svg version="1.0" xmlns="http://www.w3.org/2000/svg"
 width="4096.000000pt" height="4096.000000pt" viewBox="0 0 4096.000000 4096.000000"
 preserveAspectRatio="xMidYMid meet">

<g transform="translate(0.000000,4096.000000) scale(0.100000,-0.100000)"
fill="#000000" stroke="none">
<path d="M6810 24903 c-853 -60 -1606 -292 -2272 -700 -128 -78 -443 -307
-528 -383 -19 -17 -62 -55 -94 -83 -80 -69 -255 -245 -336 -336 -109 -124 -94
-106 -203 -246 -164 -212 -328 -477 -447 -720 -97 -200 -115 -243 -200 -486
-113 -325 -186 -647 -227 -1011 -24 -213 -24 -721 0 -936 83 -738 311 -1374
705 -1967 58 -88 112 -166 120 -174 7 -8 21 -26 30 -40 9 -14 24 -35 34 -46
223 -270 304 -357 478 -515 45 -41 90 -82 99 -90 9 -8 59 -49 111 -90 52 -41
101 -80 108 -87 7 -7 17 -13 20 -13 4 0 18 -10 32 -23 88 -82 426 -285 675
-407 568 -276 1180 -437 1864 -490 188 -14 27214 -14 27402 0 914 70 1703 334
2402 801 84 56 154 105 157 108 3 4 21 18 40 31 19 13 40 29 46 35 6 5 26 21
44 35 18 14 42 33 54 43 11 10 43 37 70 60 337 285 656 670 904 1092 296 505
487 1099 559 1737 24 215 24 723 0 936 -41 364 -114 686 -227 1011 -85 243
-102 286 -200 486 -82 168 -226 414 -323 550 -31 44 -62 88 -69 98 -7 11 -21
29 -30 40 -20 25 -21 26 -68 87 -19 25 -39 50 -45 56 -5 6 -26 30 -45 54 -178
220 -504 520 -768 707 -37 26 -89 65 -117 85 -27 21 -53 38 -58 38 -4 0 -33
17 -65 39 -159 108 -469 266 -706 361 -425 169 -803 264 -1331 332 l-170 22
-13690 1 c-7530 1 -13710 0 -13735 -2z m27200 -1083 c689 -40 1282 -211 1808
-524 331 -197 653 -481 887 -784 6 -7 15 -18 21 -25 6 -7 57 -82 113 -167 115
-173 254 -447 324 -636 323 -873 274 -1901 -129 -2719 -64 -129 -76 -153 -123
-230 -30 -50 -134 -208 -141 -215 -3 -3 -23 -30 -45 -60 -22 -30 -44 -60 -50
-66 -5 -7 -17 -20 -25 -30 -57 -69 -163 -188 -211 -234 -569 -558 -1291 -882
-2184 -982 -100 -11 -2445 -13 -13785 -13 -13132 0 -13671 1 -13810 18 -510
64 -937 191 -1336 396 -126 65 -341 195 -379 229 -6 5 -24 17 -40 27 -17 11
-44 31 -61 45 -17 14 -43 35 -58 47 -85 65 -124 101 -256 233 -81 80 -163 166
-183 192 -21 26 -43 53 -50 60 -38 40 -177 241 -254 366 -57 94 -160 304 -211
433 -111 279 -177 536 -224 879 -18 129 -18 701 0 830 78 570 238 1011 521
1440 41 63 80 120 86 126 5 6 17 22 25 34 80 117 323 371 488 509 609 507
1367 781 2287 824 184 9 26841 6 26995 -3z"/>
<path d="M35103 22865 c-277 -50 -493 -214 -611 -465 -44 -93 -62 -170 -69
-292 -23 -408 221 -744 619 -850 98 -26 295 -31 393 -9 305 67 541 288 627
587 19 65 22 104 22 219 0 195 -34 314 -130 456 -186 275 -520 414 -851 354z
m352 -155 c127 -39 269 -142 341 -246 132 -187 162 -456 76 -674 -117 -298
-440 -472 -753 -406 -319 68 -531 337 -530 676 0 121 16 192 66 298 43 91 73
132 153 208 74 70 175 125 282 154 100 27 263 23 365 -10z"/>
<path d="M34940 22055 l0 -475 70 0 70 0 0 205 0 205 85 0 84 0 41 -67 c22
-38 78 -129 123 -203 l82 -135 83 -3 c45 -2 82 0 82 3 0 4 -20 35 -45 69 -25
35 -45 67 -45 71 0 4 -21 37 -46 74 -44 62 -124 189 -124 196 0 2 18 6 39 10
64 11 146 69 171 121 48 99 32 253 -33 318 -72 72 -136 85 -414 86 l-223 0 0
-475z m437 340 c72 -21 103 -60 103 -128 0 -69 -16 -98 -70 -124 -39 -20 -64
-23 -185 -25 l-140 -3 -3 134 c-1 74 0 141 2 148 8 19 227 18 293 -2z"/>
<path d="M11160 22150 l0 -430 630 0 630 0 0 430 0 430 -630 0 -630 0 0 -430z"/>
<path d="M6050 20485 l0 -2085 645 0 645 0 0 1447 c0 1230 2 1445 14 1433 7
-8 89 -136 181 -285 92 -148 177 -286 189 -305 13 -19 34 -53 48 -75 14 -22
107 -173 208 -335 100 -162 194 -313 208 -335 35 -55 45 -71 252 -405 100
-162 192 -311 204 -330 13 -19 34 -53 48 -75 14 -22 107 -173 208 -335 100
-162 195 -315 211 -339 16 -25 29 -48 29 -53 0 -4 293 -8 650 -8 l650 0 0
2085 0 2085 -645 0 -645 0 -1 -1452 c0 -799 -3 -1446 -6 -1438 -3 8 -15 28
-27 45 -12 16 -25 37 -31 46 -5 9 -27 45 -48 80 -21 35 -51 84 -67 109 -16 25
-39 61 -50 80 -11 19 -28 47 -38 62 -9 14 -34 55 -55 90 -21 34 -51 83 -67
108 -16 25 -39 61 -50 80 -11 19 -26 44 -33 55 -6 10 -35 55 -63 100 -28 44
-59 94 -68 110 -9 17 -30 50 -46 75 -16 25 -33 52 -36 60 -4 8 -17 28 -28 45
-12 16 -25 37 -31 47 -39 66 -90 150 -115 188 -16 25 -39 61 -50 80 -11 19
-26 44 -33 55 -6 10 -35 55 -63 100 -28 44 -59 94 -68 110 -9 17 -30 50 -46
75 -16 25 -33 52 -36 60 -4 8 -17 28 -28 45 -12 16 -25 37 -31 46 -5 9 -27 45
-48 80 -21 35 -51 84 -67 109 -16 25 -40 62 -52 84 -13 21 -28 46 -33 55 -6 9
-30 49 -55 89 -25 40 -57 92 -72 115 -15 23 -37 58 -48 77 -11 19 -26 44 -33
54 -24 38 -122 196 -147 236 l-24 40 -653 0 -653 0 0 -2085z"/>
<path d="M29680 21809 l0 -760 -22 7 c-13 4 -39 17 -58 29 -91 57 -316 145
-450 176 -121 29 -392 36 -520 15 -210 -34 -412 -115 -592 -238 -150 -101
-351 -312 -439 -459 -180 -302 -249 -582 -220 -894 36 -374 168 -668 411 -914
222 -225 484 -365 795 -427 138 -28 426 -25 565 5 151 32 275 76 407 142 64
33 117 59 119 59 2 0 4 -34 4 -75 l0 -75 620 0 620 0 0 2085 0 2085 -620 0
-620 0 0 -761z m-324 -1000 c118 -37 212 -116 268 -227 61 -120 61 -120 61
-777 0 -654 1 -647 -59 -777 -73 -159 -274 -269 -466 -254 -220 16 -377 144
-437 356 -16 60 -18 115 -18 670 0 639 1 651 47 760 93 219 354 326 604 249z"/>
<path d="M17458 21863 l-3 -278 -337 -3 -338 -2 0 -205 0 -205 340 0 340 0 0
-1385 0 -1385 630 0 630 0 0 1385 0 1385 340 0 340 0 0 205 0 205 -340 0 -340
0 0 280 0 280 -630 0 -630 0 -2 -277z"/>
<path d="M32870 21346 c-322 -50 -585 -146 -823 -302 -125 -82 -188 -133 -295
-243 -120 -122 -201 -235 -276 -385 -102 -203 -146 -387 -146 -611 0 -217 43
-404 139 -600 83 -170 158 -273 306 -420 348 -346 838 -535 1389 -535 334 0
621 63 901 199 201 97 341 195 490 345 216 216 340 427 403 686 100 410 6 832
-266 1189 -38 50 -217 229 -276 276 -244 193 -548 327 -891 391 -121 22 -534
29 -655 10z m389 -341 c174 -41 306 -170 368 -359 l26 -81 9 -505 c12 -633 7
-928 -17 -1030 -61 -268 -249 -431 -495 -431 -229 0 -395 130 -478 376 l-27
80 -3 705 c-4 734 -1 791 39 909 86 252 331 394 578 336z"/>
<path d="M20845 21340 c-397 -46 -775 -197 -1053 -423 -115 -94 -301 -306
-366 -417 -132 -228 -184 -407 -193 -661 -9 -245 34 -443 140 -656 39 -77 119
-208 136 -223 3 -3 25 -30 48 -60 122 -160 350 -338 581 -454 284 -142 586
-210 937 -210 222 0 352 16 543 65 572 147 1040 537 1220 1017 l20 52 -622 0
-623 0 -6 -144 c-11 -247 -58 -388 -165 -495 -193 -194 -516 -197 -706 -8 -84
85 -110 131 -148 262 -22 77 -23 95 -23 435 l0 355 1183 3 1182 2 0 28 c0 120
-42 325 -92 452 -34 87 -138 283 -171 322 -12 14 -29 36 -37 48 -42 61 -174
200 -249 260 -24 19 -48 40 -55 46 -11 10 -153 108 -191 131 -11 7 -63 34
-115 61 -181 92 -395 161 -610 197 -113 19 -449 28 -565 15z m376 -356 c122
-36 231 -117 296 -219 64 -101 93 -240 93 -441 l0 -114 -526 0 -527 0 7 148
c13 267 50 378 163 491 106 106 209 149 359 150 46 1 103 -6 135 -15z"/>
<path d="M15145 21284 c-270 -48 -541 -173 -710 -328 -78 -71 -75 -75 -75 84
l0 140 -625 0 -625 0 0 -1390 0 -1390 623 0 622 0 -3 912 c-3 656 0 930 8 973
34 181 200 356 395 419 123 39 273 38 391 -4 172 -60 317 -210 360 -374 11
-41 14 -228 14 -988 l0 -938 625 0 625 0 0 814 c0 665 -3 836 -15 928 -34 255
-122 470 -268 652 -200 249 -523 429 -881 491 -111 19 -352 18 -461 -1z"/>
<path d="M25405 21293 c-279 -36 -574 -167 -785 -349 l-55 -47 -3 142 -3 141
-624 0 -625 0 0 -1390 0 -1390 625 0 625 0 2 963 3 963 38 77 c110 222 375
360 626 326 97 -14 170 -41 253 -96 123 -81 215 -214 237 -344 7 -45 11 -353
11 -977 l0 -912 620 0 620 0 0 844 c0 791 -1 851 -19 958 -33 188 -97 356
-189 492 -67 100 -77 112 -172 206 -199 197 -480 335 -785 385 -82 14 -321 18
-400 8z"/>
<path d="M11160 19785 l0 -1385 630 0 630 0 0 1385 0 1385 -630 0 -630 0 0
-1385z"/>
</g>
</svg>
