<?xml version="1.0" standalone="no"?>
<!DOCTYPE svg PUBLIC "-//W3C//DTD SVG 20010904//EN"
 "http://www.w3.org/TR/2001/REC-SVG-20010904/DTD/svg10.dtd">
<svg version="1.0" xmlns="http://www.w3.org/2000/svg"
 width="360.000000pt" height="360.000000pt" viewBox="0 0 360.000000 360.000000"
 preserveAspectRatio="xMidYMid meet">

<g transform="translate(0.000000,360.000000) scale(0.100000,-0.100000)"
fill="#000000" stroke="none">
<path d="M1307 3292 c-16 -17 -17 -86 -17 -784 l0 -765 -102 -37 c-57 -21
-247 -89 -423 -151 -513 -182 -552 -199 -652 -289 -84 -77 -108 -130 -107
-236 2 -113 28 -181 99 -259 59 -63 140 -109 235 -132 91 -23 352 -18 485 9
115 24 364 93 423 118 19 8 36 14 38 14 2 0 4 -43 4 -95 0 -87 2 -96 23 -109
41 -27 597 -188 631 -183 58 8 1174 403 1325 468 220 96 301 175 301 293 -1
143 -155 252 -467 330 -153 38 -264 50 -443 49 -219 -2 -386 -28 -637 -99
l-23 -6 0 601 c0 598 0 602 20 591 48 -26 50 -40 50 -485 0 -280 4 -423 11
-437 12 -23 89 -59 169 -79 31 -8 104 -14 165 -13 135 0 194 20 278 95 67 60
119 156 143 269 26 118 23 351 -5 465 -61 249 -218 445 -446 555 -69 34 -196
78 -405 140 -168 51 -371 112 -451 136 -162 49 -198 53 -222 26z m1009 -422
c191 -86 325 -249 374 -453 26 -106 27 -315 4 -420 -21 -95 -68 -183 -114
-213 -69 -46 -187 -53 -317 -20 l-48 12 -5 415 c-4 292 -9 422 -17 441 -20 45
-84 108 -137 135 -54 27 -98 27 -142 -2 -56 -37 -54 18 -54 -1139 0 -835 -3
-1066 -13 -1066 -6 0 -102 27 -212 59 l-200 59 -3 1234 -2 1235 409 -123 c224
-67 439 -137 477 -154z m-1026 -1368 l0 -87 -117 -42 c-65 -23 -190 -67 -278
-98 -193 -69 -262 -104 -315 -161 -48 -52 -51 -83 -15 -137 33 -48 75 -68 151
-75 104 -8 233 24 484 119 41 16 78 29 82 29 5 0 8 -26 8 -59 l0 -59 -67 -25
c-107 -39 -307 -94 -433 -118 -157 -30 -357 -31 -448 -1 -35 11 -81 32 -101
47 -73 50 -121 188 -88 251 24 46 94 110 158 144 33 17 252 100 487 185 235
84 438 158 452 163 14 6 28 11 33 11 4 1 7 -38 7 -87z m1724 -141 c233 -51
416 -141 416 -206 0 -53 -58 -95 -230 -169 -81 -35 -1180 -426 -1197 -426 -2
0 -2 39 -1 86 l3 85 420 153 c503 183 569 210 614 252 30 27 36 39 36 74 0 51
-27 76 -110 104 -117 40 -302 4 -715 -139 -135 -47 -246 -85 -248 -85 -1 0 -1
44 0 97 l3 97 149 38 c220 57 316 68 556 64 163 -3 225 -8 304 -25z m-1726
-128 c-3 -25 -12 -31 -103 -66 -189 -71 -330 -115 -392 -122 -35 -4 -63 -5
-63 -2 0 15 82 50 300 128 135 48 249 88 253 88 5 1 7 -11 5 -26z m1512 -57
c-21 -12 -182 -71 -707 -262 l-93 -34 0 28 c0 27 6 31 93 61 275 98 506 172
603 194 127 30 138 31 104 13z"/>
</g>
</svg>
