<?xml version="1.0" standalone="no"?>
<!DOCTYPE svg PUBLIC "-//W3C//DTD SVG 20010904//EN"
 "http://www.w3.org/TR/2001/REC-SVG-20010904/DTD/svg10.dtd">
<svg version="1.0" xmlns="http://www.w3.org/2000/svg"
 width="360.000000pt" height="360.000000pt" viewBox="0 0 360.000000 360.000000"
 preserveAspectRatio="xMidYMid meet">

<g transform="translate(0.000000,360.000000) scale(0.100000,-0.100000)"
fill="#000000" stroke="none">
<path d="M1570 2900 c-47 -10 -107 -26 -135 -35 -58 -20 -193 -84 -200 -95 -3
-4 16 -5 40 -2 94 10 273 -46 438 -138 l87 -49 78 44 c166 93 342 150 439 143
29 -3 50 -1 48 2 -8 13 -148 77 -214 99 -165 54 -413 68 -581 31z"/>
<path d="M984 2573 c-133 -142 -226 -310 -276 -499 -20 -78 -23 -112 -23 -274
0 -162 3 -196 23 -274 30 -113 72 -210 134 -313 61 -102 71 -109 63 -46 -24
192 178 622 482 1026 l92 122 -67 63 c-149 139 -293 232 -360 232 -25 0 -41
-9 -68 -37z"/>
<path d="M2457 2580 c-87 -44 -327 -239 -327 -266 0 -5 31 -50 68 -100 204
-266 379 -572 458 -799 33 -95 38 -122 38 -202 1 -51 2 -93 4 -93 5 0 90 137
115 185 45 90 86 232 103 356 42 310 -50 616 -263 872 -59 70 -68 77 -101 77
-21 0 -63 -13 -95 -30z"/>
<path d="M1735 1988 c-266 -225 -541 -545 -646 -754 -44 -86 -52 -112 -57
-173 l-5 -73 55 -51 c193 -181 544 -291 828 -258 238 28 466 124 606 256 53
50 54 52 54 107 0 61 -15 111 -60 200 -98 193 -359 500 -610 716 -52 45 -97
82 -100 82 -3 -1 -32 -24 -65 -52z"/>
</g>
</svg>
